<svg xmlns="http://www.w3.org/2000/svg" version="1.1" xmlns:xlink="http://www.w3.org/1999/xlink" xmlns:svgjs="http://svgjs.dev/svgjs" width="1500" height="935" viewBox="0 0 1500 935"><g transform="matrix(1,0,0,1,-0.9090909090909918,0.3785425101214628)"><svg viewBox="0 0 396 247" data-background-color="#5e343e" preserveAspectRatio="xMidYMid meet" height="935" width="1500" xmlns="http://www.w3.org/2000/svg" xmlns:xlink="http://www.w3.org/1999/xlink"><g id="tight-bounds" transform="matrix(1,0,0,1,0.2400000000000091,-0.09999999999999432)"><svg viewBox="0 0 395.52 247.2" height="247.2" width="395.52"><g><svg></svg></g><g><svg viewBox="0 0 395.52 247.2" height="247.2" width="395.52"><g><path d="M55.039 247.2l34.952-60.539 2.346 0-33.715 58.396h278.276l-33.715-58.396 2.346 0 34.952 60.539zM197.76 0l34.952 60.539-2.346 0-32.606-56.476-32.606 56.476-2.346 0z" fill="#dedad7" fill-rule="nonzero" stroke="none" stroke-width="1" stroke-linecap="butt" stroke-linejoin="miter" stroke-miterlimit="10" stroke-dasharray="" stroke-dashoffset="0" font-family="none" font-weight="none" font-size="none" text-anchor="none" style="mix-blend-mode: normal" data-fill-palette-color="tertiary"></path></g><g transform="matrix(1,0,0,1,0,78.55608431919941)"><svg viewBox="0 0 395.52 90.08783136160116" height="90.08783136160116" width="395.52"><g><svg viewBox="0 0 395.52 90.08783136160116" height="90.08783136160116" width="395.52"><g transform="matrix(1,0,0,1,0,55.67789392601826)"><svg viewBox="0 0 395.52 34.40993743558291" height="34.40993743558291" width="395.52"><g id="textblocktransform"><svg viewBox="0 0 395.52 34.40993743558291" height="34.40993743558291" width="395.52" id="textblock"><g><svg viewBox="0 0 395.52 34.40993743558291" height="34.40993743558291" width="395.52"><g transform="matrix(1,0,0,1,0,0)"><svg width="395.52" viewBox="0.98 -40.16 469.15999999999997 40.81999999999999" height="34.40993743558291" data-palette-color="#dedad7"><path d="M25.81 0L1.17 0Q0.98 0 0.98-0.2L0.98-0.2 0.98-0.78Q0.98-0.98 1.17-0.98L1.17-0.98 1.76-0.98Q3.86-0.98 5.42-1.86L5.42-1.86Q6.05-2.22 6.47-2.99 6.88-3.76 6.88-4.71L6.88-4.71 6.88-30.54Q6.88-32.06 4.93-32.86L4.93-32.86Q3.56-33.45 2.03-33.45L2.03-33.45 1.49-33.45Q1.29-33.45 1.29-33.64L1.29-33.64 1.29-34.23Q1.29-34.42 1.49-34.42L1.49-34.42 18.02-34.42Q18.21-34.42 18.21-34.23L18.21-34.23 18.21-33.64Q18.21-33.45 18.02-33.45L18.02-33.45 16.97-33.45Q14.45-33.45 12.52-32.74L12.52-32.74Q11.96-32.54 11.8-32.09 11.65-31.64 11.65-30.54L11.65-30.54 11.65-3.47Q11.69-3.05 12.08-2.69 12.48-2.32 12.96-2.32L12.96-2.32 22.61-2.32Q24.78-2.32 26.88-4.88L26.88-4.88Q27.44-5.57 28.27-6.7 29.1-7.84 29.3-7.98L29.3-7.98Q30.08-8.57 30.08-7.96L30.08-7.96Q30.08-7.81 30-7.67L30-7.67 26.32-0.44Q26.1 0 25.81 0L25.81 0ZM47.04-4.03Q47.04-3.39 47.64-3.02 48.24-2.64 49.02-2.64 49.8-2.64 50.33-3.04 50.85-3.44 51.05-3.44 51.24-3.44 51.24-2.92 51.24-2.39 50.75-2.03L50.75-2.03Q47.09 0.66 45.8 0.66L45.8 0.66Q44.24 0.66 43.26-2.59L43.26-2.59Q43.19-2.83 43.14-2.81L43.14-2.81Q40.11-0.54 39.33-0.07L39.33-0.07Q37.33 1.07 35.31 0.29 33.3-0.49 32.39-2.29L32.39-2.29Q31.96-3.22 31.96-4.27L31.96-4.27Q31.96-6.35 33.49-7.57 35.03-8.79 39.35-9.91L39.35-9.91Q40.82-10.3 41.97-10.91 43.11-11.52 43.17-11.69 43.23-11.87 43.23-12.01L43.23-12.01 43.23-16.7Q43.23-19.46 41.09-20.58L41.09-20.58Q40.38-20.95 39.39-20.95 38.4-20.95 37.39-20.17 36.37-19.38 36.37-17.94L36.37-17.94 36.5-16.99Q36.35-16.7 34.74-16.02 33.13-15.33 32.88-15.28L32.88-15.28Q32.49-15.28 32.49-16.22 32.49-17.16 33.05-18.31 33.62-19.46 34.64-20.41L34.64-20.41Q37.03-22.63 40.11-22.63 43.19-22.63 45.11-20.94 47.04-19.24 47.04-16.89L47.04-16.89 47.04-4.03ZM35.79-4.74Q35.79-3.56 36.69-2.7 37.6-1.83 38.75-1.83 39.91-1.83 41.57-2.82 43.23-3.81 43.23-4.86L43.23-4.86 43.23-9.81Q43.23-10.08 43.11-10.08 42.99-10.08 42.94-10.06L42.94-10.06 37.28-7.42Q36.4-6.79 36.09-6.35 35.79-5.91 35.79-4.74ZM83.34 0L65.72 0Q65.52 0 65.52-0.2L65.52-0.2 65.52-0.78Q65.52-0.98 65.86-0.98L65.86-0.98Q67.01-0.98 68.4-1.22L68.4-1.22Q72.87-1.98 72.87-4.3L72.87-4.3 72.87-30.05Q72.62-33.18 70.01-33.45L70.01-33.45Q69.23-33.54 68.28-33.54L68.28-33.54 66.89-33.54Q66.69-33.54 66.69-33.74L66.69-33.74 66.69-34.35Q66.69-34.55 66.89-34.55L66.89-34.55 67.96-34.57 72.16-34.59 80.85-34.86Q94.82-34.86 94.82-26.61L94.82-26.61Q94.82-23.12 91.2-20.8L91.2-20.8Q90.64-20.43 90.24-20.26 89.84-20.09 89.79-20.07L89.79-20.07Q93.01-18.26 94.85-16.02 96.7-13.77 96.7-10.64L96.7-10.64Q96.7-3.98 90.4-1.37L90.4-1.37Q87.15 0 83.34 0L83.34 0ZM81.95-19.04L78.07-19.04Q77.75-19.04 77.75-18.77L77.75-18.77 77.75-5.4Q77.75-3.66 79.37-2.61 81-1.56 82.88-1.56L82.88-1.56Q86.49-1.56 89.03-4.14 91.57-6.71 91.57-10.49 91.57-14.26 88.85-16.65 86.13-19.04 81.95-19.04L81.95-19.04ZM77.7-32.2L77.7-21.02Q77.7-20.56 78.26-20.56L78.26-20.56 84.27-20.56Q86.61-20.56 88.21-22.29 89.81-24.02 89.81-26.17L89.81-26.17Q89.81-30 87.64-31.73 85.47-33.45 81.85-33.45L81.85-33.45Q80.75-33.37 80.33-33.37 79.9-33.37 79.44-33.39 78.97-33.4 78.51-33.33 78.04-33.25 77.87-33.01 77.7-32.76 77.7-32.2L77.7-32.2ZM111.86 0L100.97 0Q100.72-0.05 100.72-0.34L100.72-0.34Q100.72-0.78 101.87-0.93L101.87-0.93Q104.51-1.32 104.51-3.71L104.51-3.71 104.51-16.63Q104.51-17.65 103.38-18.04L103.38-18.04Q102.9-18.21 102.33-18.32 101.77-18.43 101.44-18.53 101.11-18.63 101.03-18.71 100.94-18.8 100.94-19.08 100.94-19.36 101.31-19.56L101.31-19.56 107.53-22.49Q107.83-22.63 107.9-22.63L107.9-22.63Q108.32-22.63 108.32-22.05L108.32-22.05 108.32-3.71Q108.32-1.32 110.95-0.93L110.95-0.93Q112.1-0.78 112.1-0.42 112.1-0.05 111.86 0L111.86 0ZM106.06-29.49Q105.04-29.49 104.27-30.13 103.51-30.76 103.51-31.9 103.51-33.03 104.24-33.69 104.97-34.35 105.98-34.35 107-34.35 107.69-33.57 108.39-32.79 108.39-31.88 108.39-30.98 107.73-30.24 107.07-29.49 106.06-29.49ZM120.98-39.58L120.98-20.43Q120.98-19.68 121.34-19.68 121.69-19.68 124.45-21.26L124.45-21.26Q127.67-22.63 129.36-22.63 131.04-22.63 132.58-21.66 134.12-20.68 135.19-19.09L135.19-19.09Q137.46-15.82 137.46-11.16 137.46-6.49 134.23-2.92 130.99 0.66 125.7 0.66L125.7 0.66Q122.25 0.66 119.35-0.17L119.35-0.17Q118.49-0.42 117.9-0.56 117.3-0.71 117.24-0.87 117.18-1.03 117.18-1.25L117.18-1.25 117.18-34.16Q117.18-35.18 116.05-35.57L116.05-35.57Q115.56-35.74 115-35.85 114.44-35.96 114.11-36.06 113.78-36.16 113.7-36.24 113.61-36.33 113.61-36.61 113.61-36.89 113.98-37.08L113.98-37.08 120.2-40.01Q120.5-40.16 120.57-40.16L120.57-40.16Q120.98-40.16 120.98-39.58L120.98-39.58ZM126.16-19.65L126.16-19.65Q123.99-19.65 121.28-18.09L121.28-18.09Q120.98-17.92 120.98-17.5L120.98-17.5 120.98-5.96Q121.23-3.74 122.91-2.49 124.6-1.25 126.6-1.25L126.6-1.25Q130.11-1.25 132.03-4.03 133.95-6.81 133.95-10.38 133.95-13.94 131.99-16.8 130.04-19.65 126.16-19.65ZM150.86-0.93L150.86-0.93Q152.01-0.78 152.01-0.34L152.01-0.34Q152.01-0.05 151.77 0L151.77 0 140.88 0Q140.63-0.05 140.63-0.34L140.63-0.34Q140.63-0.78 141.78-0.93L141.78-0.93Q144.42-1.32 144.42-3.71L144.42-3.71 144.42-34.16Q144.42-35.18 143.3-35.57L143.3-35.57Q142.81-35.74 142.25-35.85 141.68-35.96 141.35-36.06 141.03-36.16 140.94-36.24 140.85-36.33 140.85-36.61 140.85-36.89 141.22-37.08L141.22-37.08 147.45-40.01Q147.74-40.16 147.81-40.16L147.81-40.16Q148.23-40.16 148.23-39.58L148.23-39.58 148.23-3.71Q148.23-1.32 150.86-0.93ZM165.46 0L154.57 0Q154.33-0.05 154.33-0.34L154.33-0.34Q154.33-0.78 155.48-0.93L155.48-0.93Q158.11-1.32 158.11-3.71L158.11-3.71 158.11-16.63Q158.11-17.65 156.99-18.04L156.99-18.04Q156.5-18.21 155.94-18.32 155.38-18.43 155.05-18.53 154.72-18.63 154.63-18.71 154.55-18.8 154.55-19.08 154.55-19.36 154.91-19.56L154.91-19.56 161.14-22.49Q161.43-22.63 161.51-22.63L161.51-22.63Q161.92-22.63 161.92-22.05L161.92-22.05 161.92-3.71Q161.92-1.32 164.56-0.93L164.56-0.93Q165.71-0.78 165.71-0.42 165.71-0.05 165.46 0L165.46 0ZM159.66-29.49Q158.65-29.49 157.88-30.13 157.11-30.76 157.11-31.9 157.11-33.03 157.84-33.69 158.58-34.35 159.59-34.35 160.6-34.35 161.3-33.57 161.99-32.79 161.99-31.88 161.99-30.98 161.34-30.24 160.68-29.49 159.66-29.49ZM168.75-10.97Q168.75-15.77 172.16-19.23 175.57-22.68 180.33-22.68 185.09-22.68 188.6-19.32 192.12-15.97 192.12-11.04 192.12-6.1 188.79-2.72 185.45 0.66 180.42 0.66 175.4 0.66 172.07-2.76 168.75-6.18 168.75-10.97ZM174.83-4.69L174.83-4.69Q177.23-0.66 181.35-0.66L181.35-0.66Q184.55-0.66 186.25-3.22 187.94-5.79 187.94-9.52 187.94-13.26 185.56-17.19 183.18-21.12 179.15-21.12L179.15-21.12Q176.2-21.12 174.5-18.57 172.81-16.02 172.81-12.1 172.81-8.18 174.83-4.69ZM208.94-18.77L201.59-18.77Q201.44-18.77 201.44-18.55L201.44-18.55 201.44-5.08Q201.44-3.61 202.09-2.78 202.74-1.95 203.74-1.95 204.74-1.95 205.48-2.28 206.23-2.61 206.78-3 207.33-3.39 207.77-3.72 208.21-4.05 208.55-4.05 208.89-4.05 208.89-3.88L208.89-3.88Q208.89-3.3 208.77-3.13L208.77-3.13Q205.84 0.66 203.11 0.66 200.39 0.66 199.01-1.06 197.63-2.78 197.63-5.18L197.63-5.18 197.63-18.77 195.8-18.77Q195.12-18.77 195.08-19.21 195.05-19.65 195.22-19.78L195.22-19.78Q196.51-20.61 198.78-22.75L198.78-22.75Q199.03-23.02 199.44-23.56 199.86-24.1 200.65-25.02 201.44-25.95 201.86-25.95 202.27-25.95 202.27-25.61L202.27-25.61Q202.27-25.56 201.44-22.41L201.44-22.41Q201.44-21.97 201.83-21.95L201.83-21.95 208.06-21.95Q209.13-21.95 209.13-18.92L209.13-18.92Q209.13-18.77 208.94-18.77L208.94-18.77ZM229.54-12.87L215.38-12.87Q214.97-12.87 214.97-11.08L214.97-11.08Q214.97-7.3 217.21-4.74 219.46-2.17 222.79-2.17 226.12-2.17 229.2-5.05L229.2-5.05Q229.25-5.1 229.32-5.1L229.32-5.1 229.44-5.1Q229.59-5.1 229.72-4.87 229.86-4.64 229.98-4.57L229.98-4.57Q227.15-1.12 223.31 0.2L223.31 0.2Q222 0.66 220.34 0.66 218.68 0.66 216.97-0.26 215.26-1.17 214.04-2.66L214.04-2.66Q211.45-5.76 211.45-10.39 211.45-15.01 214.27-18.82 217.09-22.63 222.02-22.63L222.02-22.63Q225.56-22.63 227.81-19.47 230.05-16.31 230.05-13.92L230.05-13.92Q230.05-12.87 229.54-12.87L229.54-12.87ZM215.65-15.5L215.65-15.21Q215.65-14.75 216.09-14.75L216.09-14.75 225.29-14.75Q225.93-14.75 225.93-15.5L225.93-15.5Q225.93-17.26 224.35-19.1 222.78-20.95 220.9-20.95L220.9-20.95Q219.07-20.95 217.57-19.29 216.06-17.63 215.65-15.5L215.65-15.5ZM253.32-19.7L253.32-19.7Q253.32-17.99 251.34-17.99L251.34-17.99Q250.34-17.99 249.64-18.57 248.95-19.14 248.57-19.54 248.19-19.95 247.78-20.29L247.78-20.29Q246.02-21.73 243.49-20.61 240.96-19.48 239.6-15.82L239.6-15.82Q238.84-13.79 238.84-11.79L238.84-11.79Q238.84-7.5 240.79-4.77 242.75-2.05 246.77-2.05L246.77-2.05Q249.78-2.05 252.17-4.74L252.17-4.74Q252.9-5.54 253.05-5.54 253.2-5.54 253.37-5.4 253.54-5.25 253.54-4.97 253.54-4.69 253.39-4.54L253.39-4.54Q249.66 0.66 243.99 0.66L243.99 0.66Q239.89 0.66 237.26-2.39 234.64-5.44 234.64-9.38L234.64-9.38Q234.66-16.65 238.16-19.85L238.16-19.85Q241.23-22.66 246.92-22.66L246.92-22.66Q250.44-22.66 251.58-21.95 252.73-21.24 253.2-20.17L253.2-20.17Q253.32-19.92 253.32-19.7ZM272.04-4.03Q272.04-3.39 272.64-3.02 273.24-2.64 274.02-2.64 274.8-2.64 275.32-3.04 275.85-3.44 276.04-3.44 276.24-3.44 276.24-2.92 276.24-2.39 275.75-2.03L275.75-2.03Q272.09 0.66 270.8 0.66L270.8 0.66Q269.23 0.66 268.26-2.59L268.26-2.59Q268.18-2.83 268.13-2.81L268.13-2.81Q265.11-0.54 264.33-0.07L264.33-0.07Q262.32 1.07 260.31 0.29 258.3-0.49 257.39-2.29L257.39-2.29Q256.95-3.22 256.95-4.27L256.95-4.27Q256.95-6.35 258.49-7.57 260.03-8.79 264.35-9.91L264.35-9.91Q265.81-10.3 266.96-10.91 268.11-11.52 268.17-11.69 268.23-11.87 268.23-12.01L268.23-12.01 268.23-16.7Q268.23-19.46 266.08-20.58L266.08-20.58Q265.38-20.95 264.39-20.95 263.4-20.95 262.38-20.17 261.37-19.38 261.37-17.94L261.37-17.94 261.49-16.99Q261.35-16.7 259.74-16.02 258.12-15.33 257.88-15.28L257.88-15.28Q257.49-15.28 257.49-16.22 257.49-17.16 258.05-18.31 258.61-19.46 259.64-20.41L259.64-20.41Q262.03-22.63 265.11-22.63 268.18-22.63 270.11-20.94 272.04-19.24 272.04-16.89L272.04-16.89 272.04-4.03ZM260.79-4.74Q260.79-3.56 261.69-2.7 262.59-1.83 263.75-1.83 264.91-1.83 266.57-2.82 268.23-3.81 268.23-4.86L268.23-4.86 268.23-9.81Q268.23-10.08 268.11-10.08 267.99-10.08 267.94-10.06L267.94-10.06 262.27-7.42Q261.4-6.79 261.09-6.35 260.79-5.91 260.79-4.74ZM307.05-21.62Q308.12-21.24 308.36-21.24 308.61-21.24 308.67-21.25 308.73-21.26 308.83-21.56L308.83-21.56 308.83-34.16Q308.83-35.18 307.7-35.57L307.7-35.57Q307.22-35.74 306.65-35.85 306.09-35.96 305.76-36.06 305.43-36.16 305.35-36.24 305.26-36.33 305.26-36.61 305.26-36.89 305.63-37.08L305.63-37.08 311.85-40.01Q312.15-40.16 312.22-40.16L312.22-40.16Q312.64-40.16 312.64-39.58L312.64-39.58 312.64-4.81Q312.76-3.74 313.25-3.27 313.73-2.81 314.83-2.81L314.83-2.81 316.25-2.91Q316.4-2.91 316.4-2.62 316.4-2.34 316.03-2.17L316.03-2.17 309.54 0.51Q309.24 0.66 309.03 0.66 308.83 0.66 308.83 0.05L308.83 0.05 308.83-2.17Q308.83-2.42 308.71-2.42L308.71-2.42Q308.53-2.42 306.68-1.32L306.68-1.32Q300.99 2.05 297.08-0.32L297.08-0.32Q293.96-2.22 292.86-6.35L292.86-6.35Q292.35-8.28 292.35-10.44 292.35-12.6 293.24-14.73 294.13-16.87 295.69-18.48L295.69-18.48Q299.13-22 303.99-22L303.99-22Q305.97-22 307.05-21.62ZM296.03-11.15Q296.03-7.45 298.09-4.68 300.14-1.9 303.8-1.9L303.8-1.9Q305.41-1.9 307.12-2.7 308.83-3.49 308.83-3.91L308.83-3.91 308.83-16.5Q308.83-16.97 308.19-17.6L308.19-17.6Q306.24-20.29 303-20.29 299.77-20.29 297.9-17.57 296.03-14.84 296.03-11.15ZM336.68-12.87L322.52-12.87Q322.11-12.87 322.11-11.08L322.11-11.08Q322.11-7.3 324.35-4.74 326.6-2.17 329.93-2.17 333.26-2.17 336.34-5.05L336.34-5.05Q336.39-5.1 336.46-5.1L336.46-5.1 336.58-5.1Q336.73-5.1 336.86-4.87 337-4.64 337.12-4.57L337.12-4.57Q334.29-1.12 330.46 0.2L330.46 0.2Q329.14 0.66 327.48 0.66 325.82 0.66 324.11-0.26 322.4-1.17 321.18-2.66L321.18-2.66Q318.59-5.76 318.59-10.39 318.59-15.01 321.41-18.82 324.23-22.63 329.16-22.63L329.16-22.63Q332.7-22.63 334.95-19.47 337.19-16.31 337.19-13.92L337.19-13.92Q337.19-12.87 336.68-12.87L336.68-12.87ZM322.79-15.5L322.79-15.21Q322.79-14.75 323.23-14.75L323.23-14.75 332.43-14.75Q333.07-14.75 333.07-15.5L333.07-15.5Q333.07-17.26 331.49-19.1 329.92-20.95 328.04-20.95L328.04-20.95Q326.21-20.95 324.71-19.29 323.2-17.63 322.79-15.5L322.79-15.5ZM350.3-0.93L350.3-0.93Q351.45-0.78 351.45-0.34L351.45-0.34Q351.45-0.05 351.21 0L351.21 0 340.32 0Q340.07-0.05 340.07-0.34L340.07-0.34Q340.07-0.78 341.22-0.93L341.22-0.93Q343.86-1.32 343.86-3.71L343.86-3.71 343.86-34.16Q343.86-35.18 342.73-35.57L342.73-35.57Q342.25-35.74 341.68-35.85 341.12-35.96 340.79-36.06 340.46-36.16 340.38-36.24 340.29-36.33 340.29-36.61 340.29-36.89 340.66-37.08L340.66-37.08 346.88-40.01Q347.18-40.16 347.25-40.16L347.25-40.16Q347.67-40.16 347.67-39.58L347.67-39.58 347.67-3.71Q347.67-1.32 350.3-0.93ZM402.35-34.23L402.35-33.64Q402.35-33.45 402.15-33.45L402.15-33.45 401.25-33.45Q398.15-32.84 396.68-28.37L396.68-28.37Q396.29-27.2 395.88-26.1L395.88-26.1 386.28-0.2Q386.06 0.42 385.75 0.54 385.43 0.66 384.87 0.66L384.87 0.66 383.72 0.66Q383.13 0.66 382.96 0.12L382.96 0.12 370.1-31.05Q369.32-32.98 366.24-33.42L366.24-33.42Q366.07-33.45 365.96-33.45 365.85-33.45 365.85-33.64L365.85-33.64 365.85-34.23Q365.85-34.42 366.04-34.42L366.04-34.42 380.45-34.42Q380.64-34.42 380.64-34.23L380.64-34.23 380.64-33.64Q380.64-33.45 380.45-33.45L380.45-33.45 380.08-33.45Q379.47-33.35 378.67-33.25L378.67-33.25Q375.54-32.86 375.54-30.76L375.54-30.76Q375.54-30.1 375.88-29.35L375.88-29.35 385.14-6.84Q385.38-6.35 385.65-6.86L385.65-6.86 394.14-29.86Q394.32-30.35 394.32-31.02 394.32-31.69 393.75-32.31 393.19-32.93 392.62-33.03 392.04-33.13 391.72-33.18 391.39-33.23 390.73-33.34 390.07-33.45 389.85-33.45 389.63-33.45 389.63-33.64L389.63-33.64 389.63-34.23Q389.63-34.42 389.82-34.42L389.82-34.42 402.15-34.42Q402.35-34.42 402.35-34.23L402.35-34.23ZM415.06 0L404.18 0Q403.93-0.05 403.93-0.34L403.93-0.34Q403.93-0.78 405.08-0.93L405.08-0.93Q407.72-1.32 407.72-3.71L407.72-3.71 407.72-16.63Q407.72-17.65 406.59-18.04L406.59-18.04Q406.1-18.21 405.54-18.32 404.98-18.43 404.65-18.53 404.32-18.63 404.24-18.71 404.15-18.8 404.15-19.08 404.15-19.36 404.52-19.56L404.52-19.56 410.74-22.49Q411.04-22.63 411.11-22.63L411.11-22.63Q411.52-22.63 411.52-22.05L411.52-22.05 411.52-3.71Q411.52-1.32 414.16-0.93L414.16-0.93Q415.31-0.78 415.31-0.42 415.31-0.05 415.06 0L415.06 0ZM409.27-29.49Q408.25-29.49 407.48-30.13 406.72-30.76 406.72-31.9 406.72-33.03 407.45-33.69 408.18-34.35 409.19-34.35 410.21-34.35 410.9-33.57 411.6-32.79 411.6-31.88 411.6-30.98 410.94-30.24 410.28-29.49 409.27-29.49ZM436.16-7.69L436.16-7.69 436.11-12.84Q436.11-15.99 435.57-17.26 435.03-18.53 434.2-19.18 433.37-19.82 431.97-19.82 430.57-19.82 426.02-17.63L426.02-17.63Q425.41-17.26 425.39-16.94L425.39-16.94 425.39-3.81Q425.39-1.34 428.03-0.98L428.03-0.98Q429.17-0.81 429.17-0.43 429.17-0.05 428.93 0L428.93 0 418.04 0Q417.8-0.05 417.8-0.34L417.8-0.34Q417.8-0.81 418.94-0.98L418.94-0.98Q421.58-1.34 421.58-3.81L421.58-3.81 421.58-17.82Q421.58-18.85 420.46-19.24L420.46-19.24Q419.97-19.41 419.41-19.52 418.85-19.63 418.52-19.73 418.19-19.82 418.1-19.91 418.02-20 418.02-20.28 418.02-20.56 418.38-20.75L418.38-20.75 424.61-23.68Q424.9-23.83 424.97-23.83L424.97-23.83Q425.39-23.83 425.39-23.24L425.39-23.24 425.39-19.43Q425.46-19.19 425.58-19.19L425.58-19.19Q425.73-19.19 426.63-19.63L426.63-19.63Q428.73-20.68 430.86-21.66 432.98-22.63 434.37-22.63L434.37-22.63Q440.01-22.63 440.01-12.35L440.01-12.35 439.79-5.22 439.79-3.81Q439.79-1.9 441.7-1.32L441.7-1.32Q442.5-1.05 443.25-0.94 443.99-0.83 444.22-0.73 444.46-0.63 444.46-0.34 444.46-0.05 444.21 0L444.21 0 432.45 0Q432.2-0.05 432.2-0.34L432.2-0.34Q432.2-0.81 433.35-0.98L433.35-0.98Q435.96-1.34 435.96-4L435.96-4Q436.16-5.22 436.16-7.69ZM446.77-10.97Q446.77-15.77 450.18-19.23 453.59-22.68 458.35-22.68 463.11-22.68 466.62-19.32 470.14-15.97 470.14-11.04 470.14-6.1 466.81-2.72 463.47 0.66 458.44 0.66 453.41 0.66 450.09-2.76 446.77-6.18 446.77-10.97ZM452.85-4.69L452.85-4.69Q455.25-0.66 459.37-0.66L459.37-0.66Q462.57-0.66 464.27-3.22 465.96-5.79 465.96-9.52 465.96-13.26 463.58-17.19 461.2-21.12 457.17-21.12L457.17-21.12Q454.22-21.12 452.52-18.57 450.83-16.02 450.83-12.1 450.83-8.18 452.85-4.69Z" opacity="1" transform="matrix(1,0,0,1,0,0)" fill="#dedad7" class="wordmark-text-0" data-fill-palette-color="primary" id="text-0"></path></svg></g></svg></g></svg></g></svg></g><g transform="matrix(1,0,0,1,177.36608184388933,0)"><svg viewBox="0 0 40.78783631222133 47.55453353597559" height="47.55453353597559" width="40.78783631222133"><g><svg xmlns="http://www.w3.org/2000/svg" xmlns:xlink="http://www.w3.org/1999/xlink" version="1.1" x="0" y="0" viewBox="1.966 5.991 94.768 110.49" enable-background="new 0 0 100 120" xml:space="preserve" height="47.55453353597559" width="40.78783631222133" class="icon-icon-0" data-fill-palette-color="accent" id="icon-0"><path d="M96.734 20.456C96.734 16.208 96.179 11.966 95.172 8.512A3.5 3.5 0 0 0 91.812 5.991H6.888A3.5 3.5 0 0 0 3.528 8.512C2.521 11.97 1.966 16.194 1.966 20.406 1.966 23.403 2.259 26.33 2.796 29.174H2.583L3.75 33.227A52 52 0 0 0 4.682 36.169C4.761 36.392 4.837 36.616 4.92 36.837 9.31 48.848 18.199 58.203 29.426 63.293A47.1 47.1 0 0 0 46.194 67.575V109.481H22.186A3.5 3.5 0 1 0 22.186 116.481H76.408A3.5 3.5 0 1 0 76.408 109.481H53.193V67.522A47.1 47.1 0 0 0 68.681 63.564C80.22 58.531 89.362 49.033 93.815 36.778 93.861 36.655 93.902 36.531 93.947 36.407 94.101 35.972 94.252 35.536 94.393 35.094 94.543 34.637 94.685 34.176 94.821 33.712 94.828 33.689 94.837 33.665 94.843 33.641L96.126 29.174H95.911C96.443 26.346 96.734 23.435 96.734 20.456M8.965 20.406C8.965 17.833 9.202 15.28 9.645 12.991H89.052C89.492 15.292 89.735 17.897 89.735 20.456 89.735 23.45 89.395 26.365 88.769 29.174H9.94A40.2 40.2 0 0 1 8.965 20.406" fill="#b4bfc5" data-fill-palette-color="accent"></path></svg></g></svg></g><g></g></svg></g></svg></g></svg></g><defs></defs></svg><rect width="395.52" height="247.2" fill="none" stroke="none" visibility="hidden"></rect></g></svg></g></svg>